<svg xmlns="http://www.w3.org/2000/svg" width="220" height="220" viewBox="0 0 220 220" fill="none">
  <g fill="#F5F7FF" fill-opacity="0.75">
    <circle cx="20" cy="18" r="6"/>
    <circle cx="72" cy="25" r="4"/>
    <circle cx="108" cy="18" r="6"/>
    <circle cx="154" cy="42" r="5"/>
    <circle cx="195" cy="32" r="7"/>
    <circle cx="175" cy="84" r="5"/>
    <circle cx="132" cy="88" r="6"/>
    <circle cx="94" cy="76" r="4"/>
    <circle cx="48" cy="92" r="5"/>
    <circle cx="16" cy="118" r="7"/>
    <circle cx="56" cy="138" r="5"/>
    <circle cx="102" cy="128" r="4"/>
    <circle cx="146" cy="142" r="6"/>
    <circle cx="194" cy="118" r="5"/>
    <circle cx="173" cy="175" r="6"/>
    <circle cx="120" cy="190" r="5"/>
    <circle cx="64" cy="176" r="4"/>
    <circle cx="26" cy="182" r="6"/>
    <circle cx="185" cy="200" r="7"/>
    <circle cx="110" cy="58" r="3.5"/>
    <circle cx="160" cy="110" r="3.5"/>
    <circle cx="42" cy="60" r="3.5"/>
    <circle cx="72" cy="168" r="3.5"/>
    <circle cx="202" cy="162" r="3.5"/>
  </g>
</svg>
