<svg xmlns="http://www.w3.org/2000/svg" width="360" height="360" viewBox="0 0 360 360" fill="none">
  <g fill="#A7C9F2" fill-opacity="0.85">
    <circle cx="22" cy="24" r="3.5"/>
    <circle cx="58" cy="52" r="2.8"/>
    <circle cx="96" cy="28" r="3.2"/>
    <circle cx="144" cy="54" r="3.8"/>
    <circle cx="186" cy="30" r="2.6"/>
    <circle cx="234" cy="58" r="3.5"/>
    <circle cx="284" cy="22" r="2.9"/>
    <circle cx="326" cy="62" r="3.1"/>
    <circle cx="48" cy="98" r="3.2"/>
    <circle cx="122" cy="112" r="3.6"/>
    <circle cx="172" cy="96" r="2.7"/>
    <circle cx="244" cy="114" r="3.3"/>
    <circle cx="298" cy="90" r="2.8"/>
    <circle cx="338" cy="128" r="3.4"/>
    <circle cx="18" cy="156" r="2.9"/>
    <circle cx="70" cy="164" r="3.7"/>
    <circle cx="148" cy="160" r="3.2"/>
    <circle cx="198" cy="176" r="3.5"/>
    <circle cx="250" cy="156" r="2.6"/>
    <circle cx="306" cy="188" r="3.7"/>
    <circle cx="42" cy="220" r="3.1"/>
    <circle cx="110" cy="250" r="2.9"/>
    <circle cx="166" cy="228" r="3.6"/>
    <circle cx="220" cy="260" r="3.1"/>
    <circle cx="282" cy="240" r="3.5"/>
    <circle cx="332" cy="270" r="2.8"/>
    <circle cx="22" cy="298" r="3.8"/>
    <circle cx="92" cy="322" r="2.7"/>
    <circle cx="150" cy="300" r="3.2"/>
    <circle cx="206" cy="332" r="3.6"/>
    <circle cx="272" cy="314" r="3.1"/>
    <circle cx="318" cy="340" r="2.9"/>

    <circle cx="96" cy="196" r="4.1"/>
    <circle cx="138" cy="274" r="4.2"/>
    <circle cx="258" cy="198" r="4"/>
    <circle cx="182" cy="140" r="3.9"/>
  </g>
</svg>
